# xmcd CD database file
#
# Track frame offsets:
#	150
#	13427
#	28544
#	42316
#	55525
#	70032
#	83281
#	97032
#	110255
#	123563
#	136429
#	148978
#	162607
#	176327
#	188716
#	202494
#	216000
#	228978
#	242143
#	256775
#
# Disc length: 3598 seconds
#
# Revision: 1
# Processed by: cddbd v1.5.2PL0 Copyright (c) Steve Scherf et al.
# Submitted via: CDex 1.51
#
DISCID=1f0e0c14
DTITLE=Compay Segundo - Hey Caramba
DYEAR=2005
DGENRE=Salsa
TTITLE0=Hey Caramba
TTITLE1=El Pequinto E Coleto
TTITLE2=Mi Son Oriental
TTITLE3=La Calabaza
TTITLE4=El Gallo E' Jando
TTITLE5=Jaava Leva
TTITLE6=Tu Novia Te Boto
TTITLE7=Vicenta
TTITLE8=Yo Canta En El Llano
TTITLE9=Se Seco El Arroyiyo
TTITLE10=Baya Y Tapa Al Olla
TTITLE11=El Parana
TTITLE12=Cuembre Tangana
TTITLE13=San Luisera
TTITLE14=Como El Macao, Candela
TTITLE15=Noche Buena
TTITLE16=Cuando El Rio Suena
TTITLE17=Tente En Pie
TTITLE18=Yo Domino
TTITLE19=Descripcion De Un Sueno
EXTD=YEAR: 2005
EXTT0=
EXTT1=
EXTT2=
EXTT3=
EXTT4=
EXTT5=
EXTT6=
EXTT7=
EXTT8=
EXTT9=
EXTT10=
EXTT11=
EXTT12=
EXTT13=
EXTT14=
EXTT15=
EXTT16=
EXTT17=
EXTT18=
EXTT19=
PLAYORDER=
